<svg width="48" height="48" viewBox="0 0 48 48" fill="none" xmlns="http://www.w3.org/2000/svg">
<path d="M22.9435 30.9535L21.4224 39.253M22.9435 30.9535L35.7136 37.7886C36.4955 37.8745 37.1214 37.3517 37.1631 36.6244L44.3126 10.8459C44.3347 10.0425 43.7781 9.35303 43.0685 9.25299L2.31387 30.22C2.29174 31.0234 2.84836 31.7129 3.55792 31.8129L19.1202 30.2678M22.9435 30.9535L43.7038 10.0269L19.1202 30.2678M21.4224 39.253L26.106 32.6458M21.4224 39.253L19.1202 30.2678" stroke="#FAFAFF" stroke-width="2" stroke-linejoin="round"/>
<path d="M22.9435 30.9535L21.4224 39.253M22.9435 30.9535L35.7136 37.7886C36.4955 37.8745 37.1214 37.3517 37.1631 36.6244L44.3126 10.8459C44.3347 10.0425 43.7781 9.35303 43.0685 9.25299L2.31387 30.22C2.29174 31.0234 2.84836 31.7129 3.55792 31.8129L19.1202 30.2678M22.9435 30.9535L43.7038 10.0269L19.1202 30.2678M21.4224 39.253L26.106 32.6458M21.4224 39.253L19.1202 30.2678" stroke="url(#paint0_diamond_378_674)" stroke-width="2" stroke-linejoin="round"/>
<defs>
<radialGradient id="paint0_diamond_378_674" cx="0" cy="0" r="1" gradientUnits="userSpaceOnUse" gradientTransform="translate(23.3132 24.298) rotate(90) scale(29.5495 69.136)">
<stop stop-color="#750909"/>
<stop offset="1" stop-color="white" stop-opacity="0"/>
</radialGradient>
</defs>
</svg>
