<svg width="100" height="100" viewBox="0 0 100 100" fill="none" xmlns="http://www.w3.org/2000/svg">
<path fill-rule="evenodd" clip-rule="evenodd" d="M44.8242 18.6492C60.6372 11.9964 77.3329 12.2895 83.315 20.7863C86.401 25.1696 86.7134 31.5377 84.8325 38.4688C84.833 38.5111 84.8318 38.5538 84.8288 38.5967L81.7926 81.5915C81.7388 82.3536 81.1265 82.9569 80.3634 82.9998L35.3262 85.5289C35.2264 85.5345 35.128 85.5303 35.032 85.517C27.6804 86.8531 21.3254 85.4417 17.5306 80.9791C13.2921 74.9588 12.802 62.2615 16.4283 49.9888L16.3729 49.6981L16.846 48.6341C18.0801 44.7933 19.7214 41.0201 21.7813 37.5344L23.2049 34.3327L25.1464 32.6C27.3343 29.8198 29.8531 27.3487 32.7109 25.3384C33.4684 24.8056 34.2365 24.2908 35.0137 23.794L38.5022 20.6807L44.8242 18.6492ZM19.1365 64.2003L17.0519 67.3259C16.968 64.2213 17.2193 60.8236 17.8263 57.3249L19.1365 64.2003ZM41.1936 57.8987L62.1944 64.5984L56.6414 43.6765L41.1936 57.8987ZM39.1914 24.8122C40.1591 24.2582 41.1376 23.7327 42.1237 23.2362L54.4704 19.2687L61.0504 23.8219L56.4961 38.9965L37.2667 56.7003L22.0842 60.746L20.06 50.1238L26.1324 36.4667L39.1914 24.8122ZM81.1348 47.8047C77.716 54.4203 72.6381 60.9833 66.3603 66.3678C66.3265 66.4023 66.2927 66.4369 66.2588 66.4713C66.22 66.5109 66.1811 66.5504 66.1422 66.5899L79.0204 77.7462L81.1348 47.8047ZM61.8723 70.5629C56.7105 75.4866 51.1802 79.2984 45.7748 81.9024L77.1483 80.1406L63.9548 68.711C63.2749 69.3412 62.5812 69.9582 61.8723 70.5629ZM52.7512 73.5693C50.1875 75.2316 47.414 76.8047 44.3814 78.316C41.2745 79.6317 37.8156 80.6857 33.8416 81.5354L39.813 60.644L59.8912 67.0493C57.5781 69.5833 55.2433 71.7343 52.7512 73.5693ZM65.614 23.0397L67.7301 24.8119L80.5484 34.5081C82.1462 29.711 82.4028 26.7176 81.547 24.6469C80.6569 22.4934 78.3329 20.852 73.3256 19.3691L65.614 23.0397ZM65.8378 27.1865L64.3776 26.0819L61.0412 37.9398L78.2318 37.5663L65.8378 27.1865ZM63.23 20.813L66.3382 19.3335L67.5481 18.5822L59.8613 18.6778L63.23 20.813ZM64.8719 62.8509L59.4588 42.4564L79.2355 41.6327C74.2193 51.2015 71.2371 56.2466 64.8719 62.8509ZM29.5127 79.1152L23.6109 64.7358L35.4144 61.0487L29.5127 79.1152ZM18.1265 71.1861C18.9609 75.3925 19.9108 77.805 21.2558 79.1886C22.2582 80.2197 23.633 80.8214 25.8505 80.9698L20.2747 67.9651L18.1265 71.1861Z" fill="#A52E2E"/>
<path fill-rule="evenodd" clip-rule="evenodd" d="M44.8242 18.6492C60.6372 11.9964 77.3329 12.2895 83.315 20.7863C86.401 25.1696 86.7134 31.5377 84.8325 38.4688C84.833 38.5111 84.8318 38.5538 84.8288 38.5967L81.7926 81.5915C81.7388 82.3536 81.1265 82.9569 80.3634 82.9998L35.3262 85.5289C35.2264 85.5345 35.128 85.5303 35.032 85.517C27.6804 86.8531 21.3254 85.4417 17.5306 80.9791C13.2921 74.9588 12.802 62.2615 16.4283 49.9888L16.3729 49.6981L16.846 48.6341C18.0801 44.7933 19.7214 41.0201 21.7813 37.5344L23.2049 34.3327L25.1464 32.6C27.3343 29.8198 29.8531 27.3487 32.7109 25.3384C33.4684 24.8056 34.2365 24.2908 35.0137 23.794L38.5022 20.6807L44.8242 18.6492ZM19.1365 64.2003L17.0519 67.3259C16.968 64.2213 17.2193 60.8236 17.8263 57.3249L19.1365 64.2003ZM41.1936 57.8987L62.1944 64.5984L56.6414 43.6765L41.1936 57.8987ZM39.1914 24.8122C40.1591 24.2582 41.1376 23.7327 42.1237 23.2362L54.4704 19.2687L61.0504 23.8219L56.4961 38.9965L37.2667 56.7003L22.0842 60.746L20.06 50.1238L26.1324 36.4667L39.1914 24.8122ZM81.1348 47.8047C77.716 54.4203 72.6381 60.9833 66.3603 66.3678C66.3265 66.4023 66.2927 66.4369 66.2588 66.4713C66.22 66.5109 66.1811 66.5504 66.1422 66.5899L79.0204 77.7462L81.1348 47.8047ZM61.8723 70.5629C56.7105 75.4866 51.1802 79.2984 45.7748 81.9024L77.1483 80.1406L63.9548 68.711C63.2749 69.3412 62.5812 69.9582 61.8723 70.5629ZM52.7512 73.5693C50.1875 75.2316 47.414 76.8047 44.3814 78.316C41.2745 79.6317 37.8156 80.6857 33.8416 81.5354L39.813 60.644L59.8912 67.0493C57.5781 69.5833 55.2433 71.7343 52.7512 73.5693ZM65.614 23.0397L67.7301 24.8119L80.5484 34.5081C82.1462 29.711 82.4028 26.7176 81.547 24.6469C80.6569 22.4934 78.3329 20.852 73.3256 19.3691L65.614 23.0397ZM65.8378 27.1865L64.3776 26.0819L61.0412 37.9398L78.2318 37.5663L65.8378 27.1865ZM63.23 20.813L66.3382 19.3335L67.5481 18.5822L59.8613 18.6778L63.23 20.813ZM64.8719 62.8509L59.4588 42.4564L79.2355 41.6327C74.2193 51.2015 71.2371 56.2466 64.8719 62.8509ZM29.5127 79.1152L23.6109 64.7358L35.4144 61.0487L29.5127 79.1152ZM18.1265 71.1861C18.9609 75.3925 19.9108 77.805 21.2558 79.1886C22.2582 80.2197 23.633 80.8214 25.8505 80.9698L20.2747 67.9651L18.1265 71.1861Z" fill="url(#paint0_diamond_151_773)"/>
<defs>
<radialGradient id="paint0_diamond_151_773" cx="0" cy="0" r="1" gradientUnits="userSpaceOnUse" gradientTransform="translate(50 50.1081) rotate(90) scale(46.3784 47.6619)">
<stop/>
<stop offset="1" stop-color="white" stop-opacity="0"/>
</radialGradient>
</defs>
</svg>
